<?xml version="1.0" encoding="UTF-8" standalone="no"?>
<svg
   viewBox="0 0 24 24"
   width="15"
   height="15"
   fill="none"
   stroke="currentColor"
   stroke-width="1.6"
   stroke-linecap="round"
   stroke-linejoin="round"
   aria-hidden="true"
   version="1.1"
   id="svg6"
   sodipodi:docname="tidy_up.svg"
   inkscape:version="1.4.4 (1:1.4.4+202605061436+dcaf3e7d9e)"
   xmlns:inkscape="http://www.inkscape.org/namespaces/inkscape"
   xmlns:sodipodi="http://sodipodi.sourceforge.net/DTD/sodipodi-0.dtd"
   xmlns="http://www.w3.org/2000/svg"
   xmlns:svg="http://www.w3.org/2000/svg">
  <defs
     id="defs6" />
  <sodipodi:namedview
     id="namedview6"
     pagecolor="#ffffff"
     bordercolor="#000000"
     borderopacity="0.25"
     inkscape:showpageshadow="2"
     inkscape:pageopacity="0.0"
     inkscape:pagecheckerboard="0"
     inkscape:deskcolor="#d1d1d1"
     inkscape:zoom="17.347686"
     inkscape:cx="25.161857"
     inkscape:cy="16.572815"
     inkscape:window-width="1866"
     inkscape:window-height="1011"
     inkscape:window-x="1974"
     inkscape:window-y="32"
     inkscape:window-maximized="1"
     inkscape:current-layer="svg6" />
  <path
     d="m 20.621623,2.0298933 -6.901428,6.901423 -0.884242,-0.884249 v -0.0213 l -0.0213,-0.0213 c -0.442115,-0.393937 -1.019032,-0.582649 -1.574381,-0.582649 -0.55535,0 -1.091829,0.207611 -1.5096857,0.625439 l -0.107826,0.08626 -0.345049,0.345089 -0.237212,0.19412 -6.297549,4.8957007 -0.603873,0.49603 7.440596,7.440602 0.4960357,-0.603876 4.87413,-6.254417 0.0213,0.0213 0.690146,-0.690143 h 0.0213 l 0.0213,-0.0213 c 0.787198,-0.886938 0.792591,-2.248348 -0.04313,-3.084072 l -0.948949,-0.9489397 6.901423,-6.901423 z m -9.381621,6.772016 c 0.212997,-0.0057 0.447514,0.06742 0.625437,0.215641 0.0081,0.0057 0.01322,0.01615 0.0213,0.0213 l 2.803703,2.8037017 c 0.258796,0.258796 0.283064,0.808763 0,1.164617 -0.01084,0.01328 -0.01084,0.02953 -0.0213,0.04314 l -0.215693,0.194122 -3.989885,-3.9898847 0.237212,-0.237212 c 0.132099,-0.132096 0.326214,-0.210255 0.539175,-0.215642 z m -1.8331947,1.3371547 4.0977227,4.09772 -4.0545867,5.176064 -0.992082,-0.992079 1.488121,-1.552815 -0.99208,-0.948951 -1.466552,1.531259 -0.905813,-0.905815 2.674304,-2.695869 -0.970513,-0.970518 -2.695872,2.674309 -1.358715,-1.35872 z"
     id="path1-3"
     style="stroke-width:0.784;stroke-dasharray:none" />
</svg>
